Coordinates
version=1
nRows=32
nColumns=12
inDegrees=yes

Units are S.I. units (second, meters, Newtons, ...)
Angles are in degrees

endheader
time	SC_y	SC_z	SC_x	AC_y	AC_z	AC_x	GH_y	GH_z	GH_yy	EL_x	PS_y
       0.0              -25.58          30.01          68.05          54.26         -14.68         -12.46           54.3          13.92         -119.9          71.92          70.71
  0.007405              -25.58          30.01          68.04          54.26         -14.68         -12.46          54.31          13.93         -119.9          71.92          70.71
   0.01481              -25.58          30.01          68.03          54.26         -14.67         -12.45          54.32          13.93         -119.9          71.91           70.7
   0.02222              -25.59           30.0          68.03          54.26         -14.67         -12.45          54.34          13.94         -119.9           71.9           70.7
   0.02962              -25.59           30.0          68.02          54.27         -14.67         -12.45          54.35          13.94         -119.9           71.9           70.7
   0.03703              -25.59          29.99          68.01          54.27         -14.66         -12.45          54.37          13.95         -119.9          71.89          70.69
   0.04443               -25.6          29.99           68.0          54.27         -14.66         -12.45          54.38          13.95         -119.9          71.88          70.69
   0.05184               -25.6          29.98          67.99          54.27         -14.65         -12.44           54.4          13.96         -119.9          71.87          70.68
   0.05924              -25.61          29.98          67.99          54.27         -14.65         -12.44          54.42          13.96         -119.9          71.86          70.67
   0.06665              -25.61          29.97          67.98          54.27         -14.64         -12.44          54.44          13.97         -119.9          71.85          70.67
   0.07405              -25.62          29.97          67.96          54.28         -14.64         -12.44          54.46          13.98         -119.9          71.84          70.66
   0.08146              -25.62          29.96          67.95          54.28         -14.63         -12.43          54.48          13.98         -119.9          71.83          70.65
   0.08886              -25.63          29.96          67.94          54.28         -14.62         -12.43          54.51          13.99         -119.9          71.82          70.65
   0.09627              -25.64          29.95          67.93          54.28         -14.62         -12.43          54.54           14.0         -119.9           71.8          70.64
    0.1037              -25.64          29.94          67.91          54.29         -14.61         -12.42          54.56          14.01         -119.9          71.79          70.63
    0.1111              -25.65          29.93          67.89          54.29          -14.6         -12.42           54.6          14.02         -119.9          71.77          70.62
    0.1185              -25.66          29.92          67.88          54.29         -14.59         -12.42          54.63          14.03         -119.9          71.76          70.61
    0.1259              -25.67          29.91          67.86          54.29         -14.58         -12.41          54.67          14.04         -120.0          71.74           70.6
    0.1333              -25.68           29.9          67.84           54.3         -14.57         -12.41          54.71          14.05         -120.0          71.72          70.59
    0.1407              -25.69          29.89          67.81           54.3         -14.56          -12.4          54.76          14.07         -120.0           71.7          70.57
    0.1481               -25.7          29.88          67.79          54.31         -14.54          -12.4           54.8          14.08         -120.0          71.67          70.56
    0.1555              -25.71          29.86          67.76          54.31         -14.53         -12.39          54.86           14.1         -120.0          71.64          70.54
    0.1629              -25.73          29.85          67.73          54.32         -14.51         -12.38          54.92          14.12         -120.0          71.61          70.52
    0.1703              -25.74          29.83           67.7          54.32         -14.49         -12.37          54.99          14.14         -120.0          71.58           70.5
    0.1777              -25.76          29.81          67.66          54.33         -14.47         -12.36          55.06          14.16         -120.0          71.54          70.48
    0.1851              -25.78          29.79          67.62          54.34         -14.45         -12.35          55.14          14.19         -120.0           71.5          70.46
    0.1925               -25.8          29.76          67.57          54.35         -14.42         -12.34          55.24          14.22         -120.1          71.46          70.43
    0.1999              -25.83          29.73          67.52          54.36          -14.4         -12.33          55.34          14.25         -120.1           71.4           70.4
    0.2073              -25.86           29.7          67.46          54.37         -14.36         -12.32          55.46          14.29         -120.1          71.35          70.36
    0.2148              -25.89          29.67          67.39          54.38         -14.33          -12.3          55.59          14.33         -120.1          71.28          70.32
    0.2222              -25.93          29.63          67.31          54.39         -14.28         -12.28          55.74          14.38         -120.2           71.2          70.27
    0.2296              -25.97          29.58          67.22          54.41         -14.24         -12.26          55.92          14.44         -120.2          71.12          70.22
